<?xml version="1.0" encoding="UTF-8" standalone="no"?>
<svg id="hyperbolic_tangent" version="1.1" baseProfile="full" xmlns="http://www.w3.org/2000/svg" xmlns:xlink="http://www.w3.org/1999/xlink" xmlns:ev="http://www.w3.org/2001/xml-events" width="490" height="270">

  <title>Tanh.svg - a nice plot of the hyperbolic tangent function</title>

  <desc>
     Tanh-function
     tanh(x) = (e^x - e^-x) / (e^x + e^-x)

     from Wikimedia Commons
     plotted with cubic bezier-curves
     the bezier-controll-points are calculated to give a very accurate result.
     graph acuracy is 0.000001

     symbols in "Computer Modern" (TeX) font embedded
     created with a plain text editor using GNU/Linux

     about: http://commons.wikimedia.org/wiki/Image:Hyperbolic tangent.svg
     source: http://commons.wikimedia.org/
     rights: GNU Free Documentation license,
             Creative Commons Attribution ShareAlike license
  </desc>

  <defs>
    <!-- pstricks-style arrow, zoom 1.5 -->
    <marker id="Arrow" refX="2.52" refY="2.25" markerUnits="strokeWidth" markerWidth="6" markerHeight="4.5" orient="auto">
      <path d="M 2.52 2.25 L 0 4.5 L 6 2.25 L 0 0 z"/>
    </marker>

    <line id="xgridline" x1="0" x2="0" y1="100.5" y2="-100.5" stroke="black" stroke-width="0.5" stroke-linecap="butt"/>
    <line id="ygridline" x1="-216.5" x2="216.5" y1="0" y2="-0" stroke="black" stroke-width="0.5" stroke-linecap="butt"/>
    <line id="xtick" x1="0" x2="0" y1="5" y2="-5" stroke="black" stroke-width="1" stroke-linecap="square" opacity="1"/>
    <line id="ytick" x1="-5" x2="5" y1="0" y2="-0" stroke="black" stroke-width="1" stroke-linecap="square" opacity="1"/>

    <!-- now the used chars in "Computer Modern" font. They are implemented
         as plain paths, because that always works -->

    <!-- t: horiz-adv-x="388.9"-->
    <path id="t" d="M 19 0 m 154 400 h 143 v 31 h -143 v 184 h -25           c -1 -82 -31 -189 -129 -193 v -22 h 85 v -276           c 0 -123 93 -135 129 -135 c 71 0 99 71 99 135 v 57 h -25 v -55           c 0 -74 -30 -112 -67 -112 c -67 0 -67 91 -67 108 z"/>
    <!-- a: horiz-adv-x="500"-->
    <path id="a" d="M 42 0 m 291 76 c 4 -40 31 -82 78 -82 c 21 0 82 14 82 95 v 56 h -25           v -56 c 0 -58 -25 -64 -36 -64 c -33 0 -37 45 -37 50 v 200           c 0 42 0 81 -36 118 c -39 39 -89 55 -137 55           c -82 0 -151 -47 -151 -113 c 0 -30 20 -47 46 -47 c 28 0 46 20 46 46           c 0 12 -5 45 -51 46 c 27 35 76 46 108 46 c 49 0 106 -39 106 -128           v -37 c -51 -3 -121 -6 -184 -36 c -75 -34 -100 -86 -100 -130           c 0 -81 97 -106 160 -106 c 66 0 112 40 131 87 z M 333 76 m -7 164           v -100 c 0 -95 -72 -129 -117 -129 c -49 0 -90 35 -90 85           c 0 55 42 138 207 144 z"/>
    <!-- n: horiz-adv-x="555.6"-->
    <path id="n" d="M 32 0 m 78 344 v -268 c 0 -45 -11 -45 -78 -45 v -31           c 35 1 86 3 113 3 c 26 0 78 -2 112 -3 v 31 c -67 0 -78 0 -78 45 v 184           c 0 104 71 160 135 160 c 63 0 74 -54 74 -111 v -233           c 0 -45 -11 -45 -78 -45 v -31 c 35 1 86 3 113 3 c 26 0 78 -2 112 -3           v 31 c -52 0 -77 0 -78 30 v 191 c 0 86 0 117 -31 153           c -14 17 -47 37 -105 37 c -73 0 -120 -43 -148 -105 v 105 l -141 -11           v -31 c 70 0 78 -7 78 -56 z"/>
    <!-- h: horiz-adv-x="555.6"-->
    <path id="h" d="M 32 0 m 425 252 c 0 86 0 117 -31 153 c -14 17 -47 37 -105 37           c -84 0 -128 -60 -144 -96 h -1 v 348 l -144 -11 v -31           c 70 0 78 -7 78 -56 v -520 c 0 -45 -11 -45 -78 -45 v -31           c 35 1 86 3 113 3 c 26 0 78 -2 112 -3 v 31 c -67 0 -78 0 -78 45 v 184           c 0 104 71 160 135 160 c 63 0 74 -54 74 -111 v -233           c 0 -45 -11 -45 -78 -45 v -31 c 35 1 86 3 113 3 c 26 0 78 -2 112 -3           v 31 c -52 0 -77 0 -78 30 z"/>
    <!-- (: horiz-adv-x="388.9"-->
    <path id="parleft" d="M 99 0 m 232 -240 c 0 3 0 5 -17 22 c -125 126 -157 315 -157 468           c 0 174 38 348 161 473 c 13 12 13 14 13 17 c 0 7 -4 10 -10 10           c -10 0 -100 -68 -159 -195 c -51 -110 -63 -221 -63 -305           c 0 -78 11 -199 66 -312 c 60 -123 146 -188 156 -188 c 6 0 10 3 10 10           z"/>
    <!-- ): horiz-adv-x="388.9"-->
    <path id="parright" d="M 57 0 m 232 250 c 0 78 -11 199 -66 312 c -60 123 -146 188 -156 188           c -6 0 -10 -4 -10 -10 c 0 -3 0 -5 19 -23 c 98 -99 155 -258 155 -467           c 0 -171 -37 -347 -161 -473 c -13 -12 -13 -14 -13 -17           c 0 -6 4 -10 10 -10 c 10 0 100 68 159 195 c 51 110 63 221 63 305 z"/>
    <!-- x: horiz-adv-x="527.8"-->
    <path id="x" d="M 29 0 m 305 302 c 6 26 29 118 99 118 c 5 0 29 0 50 -13           c -28 -5 -48 -30 -48 -54 c 0 -16 11 -35 38 -35 c 22 0 54 18 54 58           c 0 52 -59 66 -93 66 c -58 0 -93 -53 -105 -76 c -25 66 -79 76 -108 76           c -104 0 -161 -129 -161 -154 c 0 -10 10 -10 12 -10 c 8 0 11 2 13 11           c 34 106 100 131 134 131 c 19 0 54 -9 54 -67 c 0 -31 -17 -98 -54 -238           c -16 -62 -51 -104 -95 -104 c -6 0 -29 0 -50 13 c 25 5 47 26 47 54           c 0 27 -22 35 -37 35 c -30 0 -55 -26 -55 -58 c 0 -46 50 -66 94 -66           c 66 0 102 70 105 76 c 12 -37 48 -76 108 -76 c 103 0 160 129 160 154           c 0 10 -9 10 -12 10 c -9 0 -11 -4 -13 -11           c -33 -107 -101 -131 -133 -131 c -39 0 -55 32 -55 66           c 0 22 6 44 17 88 z"/>
    <!-- minus: horiz-adv-x="700"-->
    <path id="minus" d="M 83 0 m 578 230 c 14 0 33 0 33 20 c 0 20 -19 20 -33 20 h -467.2           c -14 0 -33 0 -33 -20 c 0 -20 19 -20 33 -20 z"/>
    <!-- 0: horiz-adv-x="500"-->
    <path id="zero" d="M 39 0 m 421 320 c 0 80 -5 160 -40 234 c -46 96 -128 112 -170 112           c -60 0 -133 -26 -174 -119 c -32 -69 -37 -147 -37 -227           c 0 -75 4 -165 45 -241 c 43 -81 116 -101 165 -101           c 54 0 130 21 174 116 c 32 69 37 147 37 226 z M 460 320 m -211 -320           c -39 0 -98 25 -116 121 c -11 60 -11 152 -11 211 c 0 64 0 130 8 184           c 19 119 94 128 119 128 c 33 0 99 -18 118 -117           c 10 -56 10 -132 10 -195 c 0 -75 0 -143 -11 -207           c -15 -95 -72 -125 -117 -125 z"/>
    <!-- 1: horiz-adv-x="500"-->
    <path id="one" d="M 89 0 m 205 640 c 0 24 0 26 -23 26 c -62 -64 -150 -64 -182 -64 v -31           c 20 0 79 0 131 26 v -518 c 0 -36 -3 -48 -93 -48 h -32 v -31           c 35 3 122 3 162 3 c 40 0 127 0 162 -3 v 31 h -32           c -90 0 -93 11 -93 48 z"/>
    <!-- 2: horiz-adv-x="500"-->
    <path id="two" d="M 50 0 m 399 174 h -25 c -5 -30 -12 -74 -22 -89 c -7 -8 -73 -8 -95 -8           h -180 l 106 103 c 156 138 216 192 216 292 c 0 114 -90 194 -212 194           c -113 0 -187 -92 -187 -181 c 0 -56 50 -56 53 -56 c 17 0 52 12 52 53           c 0 26 -18 52 -53 52 c -8 0 -10 0 -13 -1 c 23 65 77 102 135 102           c 91 0 134 -81 134 -163 c 0 -80 -50 -159 -105 -221 l -192 -214           c -11 -11 -11 -13 -11 -37 h 371 z"/>
    <!-- 5: horiz-adv-x="500"-->
    <path id="five" d="M 50 0 m 399 201 c 0 119 -82 219 -190 219 c -48 0 -91 -16 -127 -51           v 195 c 20 -6 53 -13 85 -13 c 123 0 193 91 193 104 c 0 6 -3 11 -10 11           c -1 0 -3 0 -8 -3 c -20 -9 -69 -29 -136 -29 c -40 0 -86 7 -133 28           c -8 3 -10 3 -12 3 c -10 0 -10 -8 -10 -24 v -296 c 0 -18 0 -26 14 -26           c 7 0 9 3 13 9 c 11 16 48 70 129 70 c 52 0 77 -46 85 -64           c 16 -37 18 -76 18 -126 c 0 -35 0 -95 -24 -137           c -24 -39 -61 -65 -107 -65 c -73 0 -130 53 -147 112 c 3 -1 6 -2 17 -2           c 33 0 50 25 50 49 c 0 24 -17 49 -50 49 c -14 0 -49 -7 -49 -53           c 0 -86 69 -183 181 -183 c 116 0 218 96 218 223 z"/>
    <!-- .: horiz-adv-x="277.8"-->
    <path id="dot" d="M 192 378 m 0 -325 c 0 29 -24 53 -53 53 c -29 0 -53 -24 -53 -53           c 0 -29 24 -53 53 -53 c 29 0 53 24 53 53 z"/>
  </defs>


  <g transform="translate(244.5, 135.5)">
    <!-- grid -->
    <g id="grid" opacity="0.4">
      <use xlink:href="#xgridline" x="-200" y="0"/>
      <use xlink:href="#xgridline" x="-160" y="0"/>
      <use xlink:href="#xgridline" x="-120" y="0"/>
      <use xlink:href="#xgridline" x="-80" y="0"/>
      <use xlink:href="#xgridline" x="-40" y="0"/>
      <use xlink:href="#xgridline" x="40" y="0"/>
      <use xlink:href="#xgridline" x="80" y="0"/>
      <use xlink:href="#xgridline" x="120" y="0"/>
      <use xlink:href="#xgridline" x="160" y="0"/>
      <use xlink:href="#xgridline" x="200" y="0"/>
      <use xlink:href="#ygridline" x="0" y="80"/>
      <use xlink:href="#ygridline" x="0" y="40"/>
      <use xlink:href="#ygridline" x="0" y="-40"/>
      <use xlink:href="#ygridline" x="0" y="-80"/>
    </g>

    <!-- ticks -->
    <g id="ticks">
      <use xlink:href="#xtick" x="-160" y="0"/>
      <use xlink:href="#xtick" x="-80" y="0"/>
      <use xlink:href="#xtick" x="80" y="0"/>
      <use xlink:href="#xtick" x="160" y="0"/>
      <use xlink:href="#ytick" x="0" y="80"/>
      <use xlink:href="#ytick" x="0" y="-80"/>
    </g>

    <!-- axes -->
    <g id="axes">
      <line id="x-axis" x1="-230.5" x2="230.5" y1="0" y2="0" stroke="black" stroke-width="2" stroke-linecap="square" marker-end="url(#Arrow)"/>
      <line id="y-axis" x1="0" x2="0" y1="113.5" y2="-113.5" stroke="black" stroke-width="2" stroke-linecap="square" marker-end="url(#Arrow)"/>
    </g>

    <!-- labels -->
    <g id="tanhx" transform="translate(-8,-113) scale(0.02,-0.02)">
      <use xlink:href="#t" x="-3349.4" y="0"/>
      <use xlink:href="#a" x="-2960.5" y="0"/>
      <use xlink:href="#n" x="-2460.5" y="0"/>
      <use xlink:href="#h" x="-1904.9" y="0"/>
      <use xlink:href="#parleft" x="-1349.3" y="0"/>
      <use xlink:href="#x" x="-960.4" y="0"/>
      <use xlink:href="#parright" x="-388.9" y="0"/>
    </g>
    <g id="xlabel" transform="translate(236,16) scale(0.02,-0.02)">
      <use xlink:href="#x" x="-285.75" y="0"/>
    </g>
    <g id="xlabels" transform="translate(0,25)">
      <g id="xm2" transform="translate(-160,0) scale(0.02,-0.02)">
        <use xlink:href="#minus" x="-950" y="0"/>
        <use xlink:href="#two" x="-250" y="0"/>
      </g>
      <g id="xm1" transform="translate(-80,0) scale(0.02,-0.02)">
        <use xlink:href="#minus" x="-950" y="0"/>
        <use xlink:href="#one" x="-250" y="0"/>
      </g>
      <g id="x1" transform="translate(80,0) scale(0.02,-0.02)">
        <use xlink:href="#one" x="-250" y="0"/>
      </g>
      <g id="x2" transform="translate(160,0) scale(0.02,-0.02)">
        <use xlink:href="#two" x="-250" y="0"/>
      </g>
    </g>
    <g id="ylabels" transform="translate(-8,7)">
      <g id="ym1" transform="translate(0,80) scale(0.02,-0.02)">
        <use xlink:href="#minus" x="-1200" y="0"/>
        <use xlink:href="#one" x="-500" y="0"/>
      </g>
      <g id="y1" transform="translate(0,-80) scale(0.02,-0.02)">
        <use xlink:href="#one" x="-500" y="0"/>
      </g>
    </g>

    <g transform="scale(80, -80)">
      <!-- asymptotes -->
      <!--
      <path id="asymptote_x_m1" fill="none" stroke="blue" stroke-width="0.025px"
         stroke-linecap="butt" stroke-dasharray="0.2, 0.2"
         d="M -2.7,-1 H -0.45 M 0,-1 H 2.7" />
      <path id="asymptote_x_1" fill="none" stroke="blue" stroke-width="0.025px"
         stroke-linecap="butt" stroke-dasharray="0.2, 0.2"
         d="M -2.7,1 H -0.3 M 0,1 H 2.7" />
      -->

      <!-- graph -->
      <path id="tanh-curve" fill="none" stroke="red" stroke-width="0.05px" stroke-linecap="butt" d="M -2.700000,-0.991007             C -2.630121,-0.989756 -2.563581,-0.988305 -2.500000,-0.986614             C -2.313037,-0.981643 -2.148435,-0.974515 -2.000000,-0.964028             C -1.814713,-0.950937 -1.650288,-0.932306 -1.500000,-0.905148             C -1.317686,-0.872203 -1.154181,-0.826346 -1.000000,-0.761594             C -0.817769,-0.685062 -0.657185,-0.585735 -0.500000,-0.462117             C -0.322730,-0.322703 -0.162021,-0.162021 0.000000,0.000000             C 0.162021,0.162021 0.322730,0.322703 0.500000,0.462117             C 0.657185,0.585735 0.817769,0.685062 1.000000,0.761594             C 1.154181,0.826346 1.317686,0.872203 1.500000,0.905148             C 1.650288,0.932306 1.814713,0.950937 2.000000,0.964028             C 2.148435,0.974515 2.313037,0.981643 2.500000,0.986614             C 2.563581,0.988305 2.630121,0.989756 2.700000,0.991007"/>
    </g>
  </g>

<head xmlns=""/></svg>