<?xml version="1.0" standalone="no"?>
<!DOCTYPE svg PUBLIC "-//W3C//DTD SVG 20010904//EN"
 "http://www.w3.org/TR/2001/REC-SVG-20010904/DTD/svg10.dtd">
<svg version="1.0" xmlns="http://www.w3.org/2000/svg"
 width="2048.000000pt" height="2048.000000pt" viewBox="0 0 2048.000000 2048.000000"
 preserveAspectRatio="xMidYMid meet">
<metadata>
Created by potrace 1.11, written by Peter Selinger 2001-2013
</metadata>
<g transform="translate(0.000000,2048.000000) scale(0.100000,-0.100000)"
fill="#000000" stroke="none">
<path d="M0 10240 l0 -10240 10240 0 10240 0 0 10240 0 10240 -10240 0 -10240
0 0 -10240z m19195 8936 c3 -11 4 -4042 2 -8956 l-2 -8935 -635 0 -635 0 -2
8314 c-1 4572 -4 8315 -7 8318 -2 3 -3745 5 -8318 6 l-8313 2 -2 625 c-1 344
0 630 2 636 3 9 2283 12 8954 12 l8951 0 5 -22z m-16641 -2554 c3 -9 5 -1387
5 -3060 0 -1674 2 -3047 6 -3050 3 -3 1384 1372 3068 3056 l3062 3062 448
-447 447 -448 -3067 -3067 -3068 -3068 3073 -3072 3072 -3073 3068 3068 3067
3067 448 -447 447 -448 -3062 -3062 c-1684 -1684 -3059 -3065 -3055 -3069 3
-4 1376 -6 3049 -6 1674 1 3050 -1 3059 -4 15 -4 16 -62 15 -637 l-1 -632
-7675 0 -7675 0 -2 7665 c-1 4216 0 7670 2 7676 3 9 169 12 634 13 586 0 630
-1 635 -17z"/>
<path d="M2560 8643 c-4 -466 0 -6076 4 -6080 7 -8 6116 -7 6123 1 7 7 -6106
6126 -6119 6126 -5 0 -8 -21 -8 -47z"/>
</g>
</svg>
